ply
format ascii 1.0
comment Created by Blender 2.91.0 - www.blender.org
element vertex 290
property float x
property float y
property float z
property float nx
property float ny
property float nz
property uchar red
property uchar green
property uchar blue
property uchar alpha
element face 100
property list uchar uint vertex_indices
end_header
0.008869 0.534382 4.022877 -0.002425 -0.000791 0.999997 206 211 220 255
0.008687 0.534940 4.022877 -0.002425 -0.000791 0.999997 206 211 220 255
0.008392 0.534036 4.022876 -0.002425 -0.000791 0.999997 206 211 220 255
0.008687 0.534940 4.022877 0.000000 -0.001582 0.999999 206 211 220 255
0.008099 0.534940 4.022877 0.000000 -0.001582 0.999999 206 211 220 255
0.008392 0.534036 4.022876 0.000000 -0.001582 0.999999 206 211 220 255
0.008099 0.534940 4.022877 0.002433 -0.000794 0.999997 206 211 220 255
0.007917 0.534382 4.022877 0.002433 -0.000794 0.999997 206 211 220 255
0.008392 0.534036 4.022876 0.002433 -0.000794 0.999997 206 211 220 255
0.475528 0.359635 -0.022877 -0.000161 -0.000041 -1.000000 206 211 220 255
0.469373 0.359395 -0.022876 -0.000161 -0.000041 -1.000000 206 211 220 255
0.384711 0.691931 -0.022876 -0.000161 -0.000041 -1.000000 206 211 220 255
0.469373 0.359395 -0.022876 0.883238 0.224868 -0.411491 206 211 220 255
-0.000000 0.739901 -0.822418 0.883238 0.224868 -0.411491 206 211 220 255
0.384711 0.691931 -0.022876 0.883238 0.224868 -0.411491 206 211 220 255
-0.000000 0.739901 -0.822418 0.475976 0.861392 -0.177342 206 211 220 255
-0.000000 0.904509 -0.022877 0.475976 0.861392 -0.177342 206 211 220 255
0.384711 0.691931 -0.022876 0.475976 0.861392 -0.177342 206 211 220 255
0.384711 0.691931 -0.022876 -0.000000 -0.000005 -1.000000 206 211 220 255
-0.000000 0.904509 -0.022877 -0.000000 -0.000005 -1.000000 206 211 220 255
0.293893 0.904509 -0.022877 -0.000000 -0.000005 -1.000000 206 211 220 255
-0.000000 0.739901 -0.822418 -0.475977 0.861392 -0.177342 206 211 220 255
-0.384710 0.691931 -0.022876 -0.475977 0.861392 -0.177342 206 211 220 255
-0.000000 0.904509 -0.022877 -0.475977 0.861392 -0.177342 206 211 220 255
-0.384710 0.691931 -0.022876 -0.000000 -0.000005 -1.000000 206 211 220 255
-0.293892 0.904509 -0.022877 -0.000000 -0.000005 -1.000000 206 211 220 255
-0.475528 0.359635 -0.022877 0.000000 0.000003 -1.000000 206 211 220 255
-0.384710 0.691931 -0.022876 0.000000 0.000003 -1.000000 206 211 220 255
-0.469374 0.359395 -0.022877 0.000000 0.000003 -1.000000 206 211 220 255
-0.384710 0.691931 -0.022876 -0.883237 0.224874 -0.411489 206 211 220 255
-0.000000 0.739901 -0.822418 -0.883237 0.224874 -0.411489 206 211 220 255
-0.469374 0.359395 -0.022877 -0.883237 0.224874 -0.411489 206 211 220 255
-0.475528 0.359635 -0.022877 -0.038925 -0.998100 0.047762 206 211 220 255
-0.469374 0.359395 -0.022877 -0.038925 -0.998100 0.047762 206 211 220 255
0.007917 0.534382 4.022877 -0.038925 -0.998100 0.047762 206 211 220 255
0.007917 0.534382 4.022877 -0.585376 -0.804085 0.103839 206 211 220 255
-0.469374 0.359395 -0.022877 -0.585376 -0.804085 0.103839 206 211 220 255
0.008392 0.534036 4.022876 -0.585376 -0.804085 0.103839 206 211 220 255
-0.469374 0.359395 -0.022877 -0.544651 -0.832648 0.100261 206 211 220 255
0.000000 0.091553 0.302544 -0.544651 -0.832648 0.100261 206 211 220 255
0.008392 0.534036 4.022876 -0.544651 -0.832648 0.100261 206 211 220 255
-0.475528 0.359635 -0.022877 -0.959459 0.262224 0.103324 206 211 220 255
0.007917 0.534382 4.022877 -0.959459 0.262224 0.103324 206 211 220 255
-0.384710 0.691931 -0.022876 -0.959459 0.262224 0.103324 206 211 220 255
-0.293892 0.904509 -0.022877 -0.914610 0.390742 0.103963 206 211 220 255
-0.384710 0.691931 -0.022876 -0.914610 0.390742 0.103963 206 211 220 255
0.008099 0.534940 4.022877 -0.914610 0.390742 0.103963 206 211 220 255
0.008099 0.534940 4.022877 -0.945574 0.308417 0.103776 206 211 220 255
-0.384710 0.691931 -0.022876 -0.945574 0.308417 0.103776 206 211 220 255
0.007917 0.534382 4.022877 -0.945574 0.308417 0.103776 206 211 220 255
0.293893 0.904509 -0.022877 0.000000 0.995854 0.090969 206 211 220 255
-0.000000 0.904509 -0.022877 0.000000 0.995854 0.090969 206 211 220 255
0.008687 0.534940 4.022877 0.000000 0.995854 0.090969 206 211 220 255
-0.293892 0.904509 -0.022877 0.000000 0.995854 0.090969 206 211 220 255
0.008099 0.534940 4.022877 0.000000 0.995854 0.090969 206 211 220 255
0.384711 0.691931 -0.022876 0.959848 0.262327 0.099383 206 211 220 255
0.008869 0.534382 4.022877 0.959848 0.262327 0.099383 206 211 220 255
0.475528 0.359635 -0.022877 0.959848 0.262327 0.099383 206 211 220 255
0.293893 0.904509 -0.022877 0.914965 0.390894 0.100208 206 211 220 255
0.008687 0.534940 4.022877 0.914965 0.390894 0.100208 206 211 220 255
0.384711 0.691931 -0.022876 0.914965 0.390894 0.100208 206 211 220 255
0.008869 0.534382 4.022877 0.945952 0.308541 0.099892 206 211 220 255
0.384711 0.691931 -0.022876 0.945952 0.308541 0.099892 206 211 220 255
0.008687 0.534940 4.022877 0.945952 0.308541 0.099892 206 211 220 255
0.475528 0.359635 -0.022877 0.038926 -0.998108 0.047601 206 211 220 255
0.008869 0.534382 4.022877 0.038926 -0.998108 0.047601 206 211 220 255
0.469373 0.359395 -0.022876 0.038926 -0.998108 0.047601 206 211 220 255
0.000000 0.091553 0.302544 0.584352 -0.805974 0.094542 206 211 220 255
0.008869 0.534382 4.022877 0.584352 -0.805974 0.094542 206 211 220 255
0.008392 0.534036 4.022876 0.584352 -0.805974 0.094542 206 211 220 255
0.469373 0.359395 -0.022876 0.543590 -0.833619 0.097929 206 211 220 255
0.008869 0.534382 4.022877 0.543590 -0.833619 0.097929 206 211 220 255
0.000000 0.091553 0.302544 0.543590 -0.833619 0.097929 206 211 220 255
0.469373 0.359395 -0.022876 0.000001 -0.772106 -0.635493 206 211 220 255
0.000000 0.091553 0.302544 0.000001 -0.772106 -0.635493 206 211 220 255
-0.469374 0.359395 -0.022877 0.000001 -0.772106 -0.635493 206 211 220 255
-0.000000 0.739901 -0.822418 -0.466274 -0.873197 -0.141832 206 211 220 255
0.469373 0.359395 -0.022876 -0.466274 -0.873197 -0.141832 206 211 220 255
-0.000000 0.639050 -0.201522 -0.466274 -0.873197 -0.141832 206 211 220 255
-0.000000 0.639050 -0.201522 -0.453985 -0.873680 -0.174874 206 211 220 255
0.469373 0.359395 -0.022876 -0.453985 -0.873680 -0.174874 206 211 220 255
0.248007 0.416635 0.265831 -0.453985 -0.873680 -0.174874 206 211 220 255
-0.248007 0.416635 0.265831 0.453985 -0.873680 -0.174875 206 211 220 255
-0.469374 0.359395 -0.022877 0.453985 -0.873680 -0.174875 206 211 220 255
-0.000000 0.639050 -0.201522 0.453985 -0.873680 -0.174875 206 211 220 255
-0.000000 0.639050 -0.201522 0.466273 -0.873197 -0.141832 206 211 220 255
-0.469374 0.359395 -0.022877 0.466273 -0.873197 -0.141832 206 211 220 255
-0.000000 0.739901 -0.822418 0.466273 -0.873197 -0.141832 206 211 220 255
0.248007 0.416635 0.265831 -0.000000 0.980907 -0.194478 206 211 220 255
0.469373 0.359395 -0.022876 -0.000000 0.980907 -0.194478 206 211 220 255
-0.248007 0.416635 0.265831 -0.000000 0.980907 -0.194478 206 211 220 255
-0.248007 0.416635 0.265831 0.000000 0.980907 -0.194477 206 211 220 255
0.469373 0.359395 -0.022876 0.000000 0.980907 -0.194477 206 211 220 255
-0.469374 0.359395 -0.022877 0.000000 0.980907 -0.194477 206 211 220 255
-0.248007 0.416635 0.265831 -0.000000 -0.902961 -0.429722 206 211 220 255
-0.000000 0.639050 -0.201522 -0.000000 -0.902961 -0.429722 206 211 220 255
0.248007 0.416635 0.265831 -0.000000 -0.902961 -0.429722 206 211 220 255
0.714348 0.800708 0.808104 0.927305 0.159355 0.338690 206 211 220 255
1.005713 0.350487 0.222202 0.927305 0.159355 0.338690 206 211 220 255
1.074676 2.026893 -0.755370 0.927305 0.159355 0.338690 206 211 220 255
1.005713 0.350487 0.222202 -0.000000 -0.503744 -0.863853 206 211 220 255
0.422982 0.350487 0.222202 -0.000000 -0.503744 -0.863853 206 211 220 255
1.074676 2.026893 -0.755370 -0.000000 -0.503744 -0.863853 206 211 220 255
0.422982 0.350487 0.222202 -0.898573 0.421169 0.123219 206 211 220 255
0.714348 0.800708 0.808104 -0.898573 0.421169 0.123219 206 211 220 255
1.074676 2.026893 -0.755370 -0.898573 0.421169 0.123219 206 211 220 255
0.714348 0.800708 0.808104 0.000000 -0.792933 0.609309 206 211 220 255
0.422982 0.350487 0.222202 0.000000 -0.792933 0.609309 206 211 220 255
1.005713 0.350487 0.222202 0.000000 -0.792933 0.609309 206 211 220 255
0.715432 0.057930 0.045789 -0.762016 -0.422312 -0.490901 206 211 220 255
0.427566 0.370893 0.223402 -0.762016 -0.422312 -0.490901 206 211 220 255
2.847888 0.081722 -3.284847 -0.762016 -0.422312 -0.490901 206 211 220 255
0.427566 0.370893 0.223402 -0.000000 0.996620 -0.082148 206 211 220 255
1.003300 0.370893 0.223401 -0.000000 0.996620 -0.082148 206 211 220 255
2.847888 0.081722 -3.284847 -0.000000 0.996620 -0.082148 206 211 220 255
1.003300 0.370893 0.223401 0.574336 -0.733995 0.362478 206 211 220 255
0.715432 0.057930 0.045789 0.574336 -0.733995 0.362478 206 211 220 255
2.847888 0.081722 -3.284847 0.574336 -0.733995 0.362478 206 211 220 255
0.715432 0.057930 0.045789 0.000002 -0.493574 0.869704 206 211 220 255
1.003300 0.370893 0.223401 0.000002 -0.493574 0.869704 206 211 220 255
0.427566 0.370893 0.223402 0.000002 -0.493574 0.869704 206 211 220 255
-1.075742 2.026903 -0.755365 -0.927305 0.159355 0.338690 206 211 220 255
-1.006779 0.350498 0.222207 -0.927305 0.159355 0.338690 206 211 220 255
-0.715414 0.800719 0.808109 -0.927305 0.159355 0.338690 206 211 220 255
-1.075742 2.026903 -0.755365 0.000001 -0.503744 -0.863853 206 211 220 255
-0.424048 0.350498 0.222208 0.000001 -0.503744 -0.863853 206 211 220 255
-1.006779 0.350498 0.222207 0.000001 -0.503744 -0.863853 206 211 220 255
-1.075742 2.026903 -0.755365 0.898573 0.421169 0.123219 206 211 220 255
-0.715414 0.800719 0.808109 0.898573 0.421169 0.123219 206 211 220 255
-0.424048 0.350498 0.222208 0.898573 0.421169 0.123219 206 211 220 255
-1.006779 0.350498 0.222207 -0.000001 -0.792933 0.609309 206 211 220 255
-0.424048 0.350498 0.222208 -0.000001 -0.792933 0.609309 206 211 220 255
-0.715414 0.800719 0.808109 -0.000001 -0.792933 0.609309 206 211 220 255
-2.856847 0.081722 -3.284848 0.762015 -0.422314 -0.490901 206 211 220 255
-0.436524 0.370893 0.223402 0.762015 -0.422314 -0.490901 206 211 220 255
-0.724391 0.057930 0.045789 0.762015 -0.422314 -0.490901 206 211 220 255
-2.856847 0.081722 -3.284848 0.000000 0.996620 -0.082148 206 211 220 255
-1.012259 0.370893 0.223401 0.000000 0.996620 -0.082148 206 211 220 255
-0.436524 0.370893 0.223402 0.000000 0.996620 -0.082148 206 211 220 255
-2.856847 0.081722 -3.284848 -0.574336 -0.733995 0.362478 206 211 220 255
-0.724391 0.057930 0.045789 -0.574336 -0.733995 0.362478 206 211 220 255
-1.012259 0.370893 0.223401 -0.574336 -0.733995 0.362478 206 211 220 255
-0.436524 0.370893 0.223402 -0.000001 -0.493574 0.869704 206 211 220 255
-1.012259 0.370893 0.223401 -0.000001 -0.493574 0.869704 206 211 220 255
-0.724391 0.057930 0.045789 -0.000001 -0.493574 0.869704 206 211 220 255
0.008869 0.534382 4.022877 -0.002425 -0.000791 0.999997 206 211 220 255
0.008687 0.534940 4.022877 -0.002425 -0.000791 0.999997 206 211 220 255
0.008392 0.534036 4.022876 -0.002425 -0.000791 0.999997 206 211 220 255
0.008687 0.534940 4.022877 0.000000 -0.001582 0.999999 206 211 220 255
0.008099 0.534940 4.022877 0.000000 -0.001582 0.999999 206 211 220 255
0.008392 0.534036 4.022876 0.000000 -0.001582 0.999999 206 211 220 255
0.008099 0.534940 4.022877 0.002433 -0.000794 0.999997 206 211 220 255
0.007917 0.534382 4.022877 0.002433 -0.000794 0.999997 206 211 220 255
0.008392 0.534036 4.022876 0.002433 -0.000794 0.999997 206 211 220 255
0.475528 0.359635 -0.022877 -0.000161 -0.000041 -1.000000 206 211 220 255
0.469373 0.359395 -0.022876 -0.000161 -0.000041 -1.000000 206 211 220 255
0.384711 0.691931 -0.022876 -0.000161 -0.000041 -1.000000 206 211 220 255
0.469373 0.359395 -0.022876 0.883238 0.224868 -0.411491 206 211 220 255
-0.000000 0.739901 -0.822418 0.883238 0.224868 -0.411491 206 211 220 255
0.384711 0.691931 -0.022876 0.883238 0.224868 -0.411491 206 211 220 255
-0.000000 0.739901 -0.822418 0.475976 0.861392 -0.177342 206 211 220 255
-0.000000 0.904509 -0.022877 0.475976 0.861392 -0.177342 206 211 220 255
0.384711 0.691931 -0.022876 0.475976 0.861392 -0.177342 206 211 220 255
0.384711 0.691931 -0.022876 -0.000000 -0.000005 -1.000000 206 211 220 255
-0.000000 0.904509 -0.022877 -0.000000 -0.000005 -1.000000 206 211 220 255
0.293893 0.904509 -0.022877 -0.000000 -0.000005 -1.000000 206 211 220 255
-0.000000 0.739901 -0.822418 -0.475977 0.861392 -0.177342 206 211 220 255
-0.384710 0.691931 -0.022876 -0.475977 0.861392 -0.177342 206 211 220 255
-0.000000 0.904509 -0.022877 -0.475977 0.861392 -0.177342 206 211 220 255
-0.384710 0.691931 -0.022876 -0.000000 -0.000005 -1.000000 206 211 220 255
-0.293892 0.904509 -0.022877 -0.000000 -0.000005 -1.000000 206 211 220 255
-0.475528 0.359635 -0.022877 0.000000 0.000003 -1.000000 206 211 220 255
-0.384710 0.691931 -0.022876 0.000000 0.000003 -1.000000 206 211 220 255
-0.469374 0.359395 -0.022877 0.000000 0.000003 -1.000000 206 211 220 255
-0.384710 0.691931 -0.022876 -0.883237 0.224874 -0.411489 206 211 220 255
-0.000000 0.739901 -0.822418 -0.883237 0.224874 -0.411489 206 211 220 255
-0.469374 0.359395 -0.022877 -0.883237 0.224874 -0.411489 206 211 220 255
-0.475528 0.359635 -0.022877 -0.038925 -0.998100 0.047762 206 211 220 255
-0.469374 0.359395 -0.022877 -0.038925 -0.998100 0.047762 206 211 220 255
0.007917 0.534382 4.022877 -0.038925 -0.998100 0.047762 206 211 220 255
0.007917 0.534382 4.022877 -0.585376 -0.804085 0.103839 206 211 220 255
-0.469374 0.359395 -0.022877 -0.585376 -0.804085 0.103839 206 211 220 255
0.008392 0.534036 4.022876 -0.585376 -0.804085 0.103839 206 211 220 255
-0.469374 0.359395 -0.022877 -0.544651 -0.832648 0.100261 206 211 220 255
0.000000 0.091553 0.302544 -0.544651 -0.832648 0.100261 206 211 220 255
0.008392 0.534036 4.022876 -0.544651 -0.832648 0.100261 206 211 220 255
-0.475528 0.359635 -0.022877 -0.959459 0.262224 0.103324 206 211 220 255
0.007917 0.534382 4.022877 -0.959459 0.262224 0.103324 206 211 220 255
-0.384710 0.691931 -0.022876 -0.959459 0.262224 0.103324 206 211 220 255
-0.293892 0.904509 -0.022877 -0.914610 0.390742 0.103963 206 211 220 255
-0.384710 0.691931 -0.022876 -0.914610 0.390742 0.103963 206 211 220 255
0.008099 0.534940 4.022877 -0.914610 0.390742 0.103963 206 211 220 255
0.008099 0.534940 4.022877 -0.945574 0.308417 0.103776 206 211 220 255
-0.384710 0.691931 -0.022876 -0.945574 0.308417 0.103776 206 211 220 255
0.007917 0.534382 4.022877 -0.945574 0.308417 0.103776 206 211 220 255
0.293893 0.904509 -0.022877 0.000000 0.995854 0.090969 206 211 220 255
-0.000000 0.904509 -0.022877 0.000000 0.995854 0.090969 206 211 220 255
0.008687 0.534940 4.022877 0.000000 0.995854 0.090969 206 211 220 255
-0.293892 0.904509 -0.022877 0.000000 0.995854 0.090969 206 211 220 255
0.008099 0.534940 4.022877 0.000000 0.995854 0.090969 206 211 220 255
0.475528 0.359635 -0.022877 0.959848 0.262327 0.099383 206 211 220 255
0.384711 0.691931 -0.022876 0.959848 0.262327 0.099383 206 211 220 255
0.008869 0.534382 4.022877 0.959848 0.262327 0.099383 206 211 220 255
0.293893 0.904509 -0.022877 0.914965 0.390894 0.100208 206 211 220 255
0.008687 0.534940 4.022877 0.914965 0.390894 0.100208 206 211 220 255
0.384711 0.691931 -0.022876 0.914965 0.390894 0.100208 206 211 220 255
0.008869 0.534382 4.022877 0.945952 0.308541 0.099892 206 211 220 255
0.384711 0.691931 -0.022876 0.945952 0.308541 0.099892 206 211 220 255
0.008687 0.534940 4.022877 0.945952 0.308541 0.099892 206 211 220 255
0.475528 0.359635 -0.022877 0.038926 -0.998108 0.047601 206 211 220 255
0.008869 0.534382 4.022877 0.038926 -0.998108 0.047601 206 211 220 255
0.469373 0.359395 -0.022876 0.038926 -0.998108 0.047601 206 211 220 255
0.008392 0.534036 4.022876 0.584354 -0.805973 0.094541 206 211 220 255
0.000000 0.091553 0.302544 0.584354 -0.805973 0.094541 206 211 220 255
0.008869 0.534382 4.022877 0.584354 -0.805973 0.094541 206 211 220 255
0.000000 0.091553 0.302544 0.543590 -0.833619 0.097929 206 211 220 255
0.469373 0.359395 -0.022876 0.543590 -0.833619 0.097929 206 211 220 255
0.008869 0.534382 4.022877 0.543590 -0.833619 0.097929 206 211 220 255
0.469373 0.359395 -0.022876 0.000001 -0.772106 -0.635493 206 211 220 255
0.000000 0.091553 0.302544 0.000001 -0.772106 -0.635493 206 211 220 255
-0.469374 0.359395 -0.022877 0.000001 -0.772106 -0.635493 206 211 220 255
-0.000000 0.739901 -0.822418 -0.466274 -0.873197 -0.141832 206 211 220 255
0.469373 0.359395 -0.022876 -0.466274 -0.873197 -0.141832 206 211 220 255
-0.000000 0.639050 -0.201522 -0.466274 -0.873197 -0.141832 190 110 70 255
-0.000000 0.639050 -0.201522 -0.453985 -0.873680 -0.174874 190 110 70 255
0.469373 0.359395 -0.022876 -0.453985 -0.873680 -0.174874 206 211 220 255
0.248007 0.416635 0.265831 -0.453985 -0.873680 -0.174874 190 110 70 255
-0.248007 0.416635 0.265831 0.453985 -0.873680 -0.174875 190 110 70 255
-0.469374 0.359395 -0.022877 0.453985 -0.873680 -0.174875 206 211 220 255
-0.000000 0.639050 -0.201522 0.453985 -0.873680 -0.174875 190 110 70 255
-0.000000 0.639050 -0.201522 0.466273 -0.873197 -0.141832 190 110 70 255
-0.469374 0.359395 -0.022877 0.466273 -0.873197 -0.141832 206 211 220 255
-0.000000 0.739901 -0.822418 0.466273 -0.873197 -0.141832 206 211 220 255
0.248007 0.416635 0.265831 -0.000000 0.980907 -0.194478 190 110 70 255
0.469373 0.359395 -0.022876 -0.000000 0.980907 -0.194478 206 211 220 255
-0.248007 0.416635 0.265831 -0.000000 0.980907 -0.194478 190 110 70 255
-0.248007 0.416635 0.265831 0.000000 0.980907 -0.194477 190 110 70 255
0.469373 0.359395 -0.022876 0.000000 0.980907 -0.194477 206 211 220 255
-0.469374 0.359395 -0.022877 0.000000 0.980907 -0.194477 206 211 220 255
-0.248007 0.416635 0.265831 -0.000000 -0.902961 -0.429722 190 110 70 255
-0.000000 0.639050 -0.201522 -0.000000 -0.902961 -0.429722 190 110 70 255
0.248007 0.416635 0.265831 -0.000000 -0.902961 -0.429722 190 110 70 255
0.714348 0.800708 0.808104 0.927305 0.159355 0.338690 39 93 173 255
1.005713 0.350487 0.222202 0.927305 0.159355 0.338690 39 93 173 255
1.074676 2.026893 -0.755370 0.927305 0.159355 0.338690 39 93 173 255
1.005713 0.350487 0.222202 -0.000000 -0.503744 -0.863853 39 93 173 255
0.422982 0.350487 0.222202 -0.000000 -0.503744 -0.863853 39 93 173 255
1.074676 2.026893 -0.755370 -0.000000 -0.503744 -0.863853 39 93 173 255
0.422982 0.350487 0.222202 -0.898573 0.421169 0.123219 39 93 173 255
0.714348 0.800708 0.808104 -0.898573 0.421169 0.123219 39 93 173 255
1.074676 2.026893 -0.755370 -0.898573 0.421169 0.123219 39 93 173 255
0.714348 0.800708 0.808104 0.000000 -0.792933 0.609309 39 93 173 255
0.422982 0.350487 0.222202 0.000000 -0.792933 0.609309 39 93 173 255
1.005713 0.350487 0.222202 0.000000 -0.792933 0.609309 39 93 173 255
0.715432 0.057930 0.045789 -0.762016 -0.422312 -0.490901 206 211 220 255
0.427566 0.370893 0.223402 -0.762016 -0.422312 -0.490901 206 211 220 255
2.847888 0.081722 -3.284847 -0.762016 -0.422312 -0.490901 206 211 220 255
0.427566 0.370893 0.223402 -0.000000 0.996620 -0.082148 206 211 220 255
1.003300 0.370893 0.223401 -0.000000 0.996620 -0.082148 206 211 220 255
2.847888 0.081722 -3.284847 -0.000000 0.996620 -0.082148 206 211 220 255
1.003300 0.370893 0.223401 0.574336 -0.733995 0.362478 206 211 220 255
0.715432 0.057930 0.045789 0.574336 -0.733995 0.362478 206 211 220 255
2.847888 0.081722 -3.284847 0.574336 -0.733995 0.362478 206 211 220 255
0.715432 0.057930 0.045789 0.000002 -0.493574 0.869704 206 211 220 255
1.003300 0.370893 0.223401 0.000002 -0.493574 0.869704 206 211 220 255
0.427566 0.370893 0.223402 0.000002 -0.493574 0.869704 206 211 220 255
-1.075742 2.026903 -0.755365 -0.927305 0.159355 0.338690 39 93 173 255
-1.006779 0.350498 0.222207 -0.927305 0.159355 0.338690 39 93 173 255
-0.715414 0.800719 0.808109 -0.927305 0.159355 0.338690 39 93 173 255
-1.075742 2.026903 -0.755365 0.000001 -0.503744 -0.863853 39 93 173 255
-0.424048 0.350498 0.222208 0.000001 -0.503744 -0.863853 39 93 173 255
-1.006779 0.350498 0.222207 0.000001 -0.503744 -0.863853 39 93 173 255
-1.075742 2.026903 -0.755365 0.898573 0.421169 0.123219 39 93 173 255
-0.715414 0.800719 0.808109 0.898573 0.421169 0.123219 39 93 173 255
-0.424048 0.350498 0.222208 0.898573 0.421169 0.123219 39 93 173 255
-1.006779 0.350498 0.222207 -0.000001 -0.792933 0.609309 39 93 173 255
-0.424048 0.350498 0.222208 -0.000001 -0.792933 0.609309 39 93 173 255
-0.715414 0.800719 0.808109 -0.000001 -0.792933 0.609309 39 93 173 255
-2.856847 0.081722 -3.284848 0.762015 -0.422314 -0.490901 206 211 220 255
-0.436524 0.370893 0.223402 0.762015 -0.422314 -0.490901 206 211 220 255
-0.724391 0.057930 0.045789 0.762015 -0.422314 -0.490901 206 211 220 255
-2.856847 0.081722 -3.284848 0.000000 0.996620 -0.082148 206 211 220 255
-1.012259 0.370893 0.223401 0.000000 0.996620 -0.082148 206 211 220 255
-0.436524 0.370893 0.223402 0.000000 0.996620 -0.082148 206 211 220 255
-2.856847 0.081722 -3.284848 -0.574336 -0.733995 0.362478 206 211 220 255
-0.724391 0.057930 0.045789 -0.574336 -0.733995 0.362478 206 211 220 255
-1.012259 0.370893 0.223401 -0.574336 -0.733995 0.362478 206 211 220 255
-0.436524 0.370893 0.223402 -0.000001 -0.493574 0.869704 206 211 220 255
-1.012259 0.370893 0.223401 -0.000001 -0.493574 0.869704 206 211 220 255
-0.724391 0.057930 0.045789 -0.000001 -0.493574 0.869704 206 211 220 255
3 0 1 2
3 3 4 5
3 6 7 8
3 9 10 11
3 12 13 14
3 15 16 17
3 18 19 20
3 21 22 23
3 19 24 25
3 26 27 28
3 29 30 31
3 32 33 34
3 35 36 37
3 38 39 40
3 41 42 43
3 44 45 46
3 47 48 49
3 50 51 52
3 53 54 51
3 52 51 54
3 55 56 57
3 58 59 60
3 61 62 63
3 64 65 66
3 67 68 69
3 70 71 72
3 73 74 75
3 76 77 78
3 79 80 81
3 82 83 84
3 85 86 87
3 88 89 90
3 91 92 93
3 94 95 96
3 97 98 99
3 100 101 102
3 103 104 105
3 106 107 108
3 109 110 111
3 112 113 114
3 115 116 117
3 118 119 120
3 121 122 123
3 124 125 126
3 127 128 129
3 130 131 132
3 133 134 135
3 136 137 138
3 139 140 141
3 142 143 144
3 145 146 147
3 148 149 150
3 151 152 153
3 154 155 156
3 157 158 159
3 160 161 162
3 163 164 165
3 166 167 168
3 164 169 170
3 171 172 173
3 174 175 176
3 177 178 179
3 180 181 182
3 183 184 185
3 186 187 188
3 189 190 191
3 192 193 194
3 195 196 197
3 198 199 196
3 197 196 199
3 200 201 202
3 203 204 205
3 206 207 208
3 209 210 211
3 212 213 214
3 215 216 217
3 218 219 220
3 221 222 223
3 224 225 226
3 227 228 229
3 230 231 232
3 233 234 235
3 236 237 238
3 239 240 241
3 242 243 244
3 245 246 247
3 248 249 250
3 251 252 253
3 254 255 256
3 257 258 259
3 260 261 262
3 263 264 265
3 266 267 268
3 269 270 271
3 272 273 274
3 275 276 277
3 278 279 280
3 281 282 283
3 284 285 286
3 287 288 289
