ply
format ascii 1.0
comment Created by Blender 2.91.0 - www.blender.org
element vertex 70
property float x
property float y
property float z
property float nx
property float ny
property float nz
property uchar red
property uchar green
property uchar blue
property uchar alpha
element face 100
property list uchar uint vertex_indices
end_header
-0.008869 0.534382 -4.022877 -0.729423 -0.238685 -0.641011 206 211 220 255
-0.008687 0.534940 -4.022877 -0.449568 0.623127 -0.639973 206 211 220 255
-0.008392 0.534036 -4.022876 -0.001526 -0.768090 -0.640309 206 211 220 255
-0.008099 0.534940 -4.022877 0.448408 0.623096 -0.640797 206 211 220 255
-0.007917 0.534382 -4.022877 0.727958 -0.235817 -0.643757 206 211 220 255
-0.475528 0.359635 0.022877 -0.695120 -0.493484 0.522721 206 211 220 255
-0.469373 0.359395 0.022876 -0.144292 -0.753227 0.641713 206 211 220 255
-0.384711 0.691931 0.022876 -0.878323 0.421705 0.225135 206 211 220 255
0.000000 0.739901 0.822418 0.000000 0.107395 0.994201 206 211 220 255
0.000000 0.904509 0.022877 0.000000 0.976623 0.214820 206 211 220 255
-0.293893 0.904509 0.022877 -0.458968 0.691000 0.558397 206 211 220 255
0.384710 0.691931 0.022876 0.878719 0.421918 0.223212 206 211 220 255
0.293892 0.904509 0.022877 0.460097 0.690970 0.557543 206 211 220 255
0.475528 0.359635 0.022877 0.696310 -0.493179 0.521409 206 211 220 255
0.469374 0.359395 0.022877 0.144230 -0.753471 0.641438 206 211 220 255
0.000000 0.091553 -0.302544 0.000885 -0.990326 0.138646 206 211 220 255
0.000000 0.639050 0.201522 0.000000 -0.977142 0.212470 206 211 220 255
-0.248007 0.416635 -0.265831 0.446577 0.054567 0.893063 206 211 220 255
0.248007 0.416635 -0.265831 -0.446577 0.054567 0.893063 206 211 220 255
-0.714348 0.800708 -0.808104 0.077670 0.184942 -0.979644 206 211 220 255
-1.005713 0.350487 -0.222202 -0.663625 -0.743797 0.079562 206 211 220 255
-1.074676 2.026893 0.755370 -0.181402 0.780053 0.598804 206 211 220 255
-0.422982 0.350487 -0.222202 0.760552 -0.638813 0.116001 206 211 220 255
-0.715432 0.057930 -0.045789 0.286905 -0.935301 -0.207007 206 211 220 255
-0.427566 0.370893 -0.223402 0.842433 0.281808 -0.459181 206 211 220 255
-2.847888 0.081722 3.284847 -0.524247 -0.044954 0.850337 206 211 220 255
-1.003300 0.370893 -0.223401 -0.557360 0.346110 -0.754662 206 211 220 255
1.075742 2.026903 0.755365 0.181402 0.780053 0.598804 206 211 220 255
1.006779 0.350498 -0.222207 0.663625 -0.743797 0.079562 206 211 220 255
0.715414 0.800719 -0.808109 -0.077670 0.184942 -0.979644 206 211 220 255
0.424048 0.350498 -0.222208 -0.760552 -0.638813 0.116001 206 211 220 255
2.856847 0.081722 3.284848 0.524155 -0.044832 0.850398 206 211 220 255
0.436524 0.370893 -0.223402 -0.842433 0.281808 -0.459181 206 211 220 255
0.724391 0.057930 -0.045789 -0.286905 -0.935301 -0.207007 206 211 220 255
1.012259 0.370893 -0.223401 0.557360 0.346110 -0.754662 206 211 220 255
-0.008869 0.534382 -4.022877 -0.729423 -0.238685 -0.641011 206 211 220 255
-0.008687 0.534940 -4.022877 -0.449568 0.623127 -0.639973 206 211 220 255
-0.008392 0.534036 -4.022876 -0.001526 -0.768090 -0.640309 206 211 220 255
-0.008099 0.534940 -4.022877 0.448408 0.623096 -0.640797 206 211 220 255
-0.007917 0.534382 -4.022877 0.727958 -0.235817 -0.643757 206 211 220 255
-0.475528 0.359635 0.022877 -0.695120 -0.493484 0.522721 206 211 220 255
-0.469373 0.359395 0.022876 -0.144292 -0.753227 0.641713 206 211 220 255
-0.384711 0.691931 0.022876 -0.878323 0.421705 0.225135 206 211 220 255
0.000000 0.739901 0.822418 0.000000 0.107395 0.994201 206 211 220 255
0.000000 0.904509 0.022877 0.000000 0.976623 0.214820 206 211 220 255
-0.293893 0.904509 0.022877 -0.458968 0.691000 0.558397 206 211 220 255
0.384710 0.691931 0.022876 0.878719 0.421918 0.223212 206 211 220 255
0.293892 0.904509 0.022877 0.460097 0.690970 0.557543 206 211 220 255
0.475528 0.359635 0.022877 0.696310 -0.493179 0.521409 206 211 220 255
0.469374 0.359395 0.022877 0.144230 -0.753471 0.641438 206 211 220 255
0.000000 0.091553 -0.302544 0.000885 -0.990326 0.138646 206 211 220 255
0.000000 0.639050 0.201522 0.000000 -0.977142 0.212470 190 110 70 255
-0.248007 0.416635 -0.265831 0.446577 0.054567 0.893063 190 110 70 255
0.248007 0.416635 -0.265831 -0.446577 0.054567 0.893063 190 110 70 255
-0.714348 0.800708 -0.808104 0.077670 0.184942 -0.979644 39 93 173 255
-1.005713 0.350487 -0.222202 -0.663625 -0.743797 0.079562 39 93 173 255
-1.074676 2.026893 0.755370 -0.181402 0.780053 0.598804 39 93 173 255
-0.422982 0.350487 -0.222202 0.760552 -0.638813 0.116001 39 93 173 255
-0.715432 0.057930 -0.045789 0.286905 -0.935301 -0.207007 206 211 220 255
-0.427566 0.370893 -0.223402 0.842433 0.281808 -0.459181 206 211 220 255
-2.847888 0.081722 3.284847 -0.524247 -0.044954 0.850337 206 211 220 255
-1.003300 0.370893 -0.223401 -0.557360 0.346110 -0.754662 206 211 220 255
1.075742 2.026903 0.755365 0.181402 0.780053 0.598804 39 93 173 255
1.006779 0.350498 -0.222207 0.663625 -0.743797 0.079562 39 93 173 255
0.715414 0.800719 -0.808109 -0.077670 0.184942 -0.979644 39 93 173 255
0.424048 0.350498 -0.222208 -0.760552 -0.638813 0.116001 39 93 173 255
2.856847 0.081722 3.284848 0.524155 -0.044832 0.850398 206 211 220 255
0.436524 0.370893 -0.223402 -0.842433 0.281808 -0.459181 206 211 220 255
0.724391 0.057930 -0.045789 -0.286905 -0.935301 -0.207007 206 211 220 255
1.012259 0.370893 -0.223401 0.557360 0.346110 -0.754662 206 211 220 255
3 0 1 2
3 1 3 2
3 3 4 2
3 5 6 7
3 6 8 7
3 8 9 7
3 7 9 10
3 8 11 9
3 9 11 12
3 13 11 14
3 11 8 14
3 13 14 4
3 4 14 2
3 14 15 2
3 13 4 11
3 12 11 3
3 3 11 4
3 10 9 1
3 12 3 9
3 1 9 3
3 5 7 0
3 10 1 7
3 0 7 1
3 5 0 6
3 2 15 0
3 15 6 0
3 6 15 14
3 8 6 16
3 16 6 17
3 18 14 16
3 16 14 8
3 17 6 18
3 18 6 14
3 18 16 17
3 19 20 21
3 20 22 21
3 22 19 21
3 19 22 20
3 23 24 25
3 24 26 25
3 26 23 25
3 23 26 24
3 27 28 29
3 27 30 28
3 27 29 30
3 28 30 29
3 31 32 33
3 31 34 32
3 31 33 34
3 32 34 33
3 35 36 37
3 36 38 37
3 38 39 37
3 40 41 42
3 41 43 42
3 43 44 42
3 42 44 45
3 43 46 44
3 44 46 47
3 48 46 49
3 46 43 49
3 48 49 39
3 39 49 37
3 49 50 37
3 48 39 46
3 47 46 38
3 38 46 39
3 45 44 36
3 47 38 44
3 36 44 38
3 40 42 35
3 45 36 42
3 35 42 36
3 40 35 41
3 37 50 35
3 50 41 35
3 41 50 49
3 43 41 51
3 51 41 52
3 53 49 51
3 51 49 43
3 52 41 53
3 53 41 49
3 53 51 52
3 54 55 56
3 55 57 56
3 57 54 56
3 54 57 55
3 58 59 60
3 59 61 60
3 61 58 60
3 58 61 59
3 62 63 64
3 62 65 63
3 62 64 65
3 63 65 64
3 66 67 68
3 66 69 67
3 66 68 69
3 67 69 68
