# This file uses centimeters as units for non-parametric coordinates.

v -0.500000 -0.500000 0.500000
v 0.500000 -0.500000 0.500000
v -0.500000 0.500000 0.500000
v 0.500000 0.500000 0.500000
v -0.500000 0.500000 -0.500000
v 0.500000 0.500000 -0.500000
v -0.500000 -0.500000 -0.500000
v 0.500000 -0.500000 -0.500000
v -0.500000 -0.500000 3.500000
v 0.500000 -0.500000 3.500000
v 0.500000 0.500000 3.500000
v -0.500000 0.500000 3.500000
v -0.500000 1.500000 0.500000
v 0.500000 1.500000 0.500000
v 0.500000 1.500000 -0.500000
v -0.500000 1.500000 -0.500000
v 2.500000 -0.500000 -0.500000
v 2.500000 -0.500000 0.500000
v 2.500000 0.500000 -0.500000
v 2.500000 0.500000 0.500000
vt 0.375000 0.000000
vt 0.625000 0.000000
vt 0.375000 0.250000
vt 0.625000 0.250000
vt 0.375000 0.500000
vt 0.625000 0.500000
vt 0.375000 0.750000
vt 0.625000 0.750000
vt 0.375000 1.000000
vt 0.625000 1.000000
vt 0.875000 0.000000
vt 0.875000 0.250000
vt 0.125000 0.000000
vt 0.125000 0.250000
vt 0.375000 0.000000
vt 0.625000 0.000000
vt 0.625000 0.250000
vt 0.375000 0.250000
vt 0.375000 0.250000
vt 0.625000 0.250000
vt 0.625000 0.500000
vt 0.375000 0.500000
vt 0.625000 0.000000
vt 0.875000 0.000000
vt 0.875000 0.250000
vt 0.625000 0.250000
vn 0.000000 0.000000 1.000000
vn 0.000000 0.000000 1.000000
vn 0.000000 0.000000 1.000000
vn 0.000000 0.000000 1.000000
vn 0.000000 1.000000 0.000000
vn 0.000000 1.000000 0.000000
vn 0.000000 1.000000 0.000000
vn 0.000000 1.000000 0.000000
vn 0.000000 0.000000 -1.000000
vn 0.000000 0.000000 -1.000000
vn 0.000000 0.000000 -1.000000
vn 0.000000 0.000000 -1.000000
vn 0.000000 -1.000000 0.000000
vn 0.000000 -1.000000 0.000000
vn 0.000000 -1.000000 0.000000
vn 0.000000 -1.000000 0.000000
vn 1.000000 0.000000 0.000000
vn 1.000000 0.000000 0.000000
vn 1.000000 0.000000 0.000000
vn 1.000000 0.000000 0.000000
vn -1.000000 0.000000 0.000000
vn -1.000000 0.000000 0.000000
vn -1.000000 0.000000 0.000000
vn -1.000000 0.000000 0.000000
vn 0.000000 -1.000000 0.000000
vn 0.000000 -1.000000 0.000000
vn 1.000000 0.000000 0.000000
vn 1.000000 0.000000 0.000000
vn 1.000000 0.000000 0.000000
vn 1.000000 0.000000 0.000000
vn 0.000000 1.000000 0.000000
vn 0.000000 1.000000 0.000000
vn 0.000000 1.000000 0.000000
vn 0.000000 1.000000 0.000000
vn -1.000000 0.000000 0.000000
vn -1.000000 0.000000 0.000000
vn 0.000000 -0.000000 1.000000
vn 0.000000 -0.000000 1.000000
vn 0.000000 -0.000000 1.000000
vn 0.000000 -0.000000 1.000000
vn 1.000000 0.000000 0.000000
vn 1.000000 0.000000 0.000000
vn 1.000000 0.000000 0.000000
vn 1.000000 0.000000 0.000000
vn 0.000000 0.000000 -1.000000
vn 0.000000 0.000000 -1.000000
vn -1.000000 0.000000 0.000000
vn -1.000000 0.000000 0.000000
vn 0.000000 -1.000000 0.000000
vn 0.000000 -1.000000 0.000000
vn 0.000000 0.000000 -1.000000
vn 0.000000 0.000000 -1.000000
vn 0.000000 1.000000 0.000000
vn 0.000000 1.000000 0.000000
vn 0.000000 1.000000 0.000000
vn 0.000000 1.000000 0.000000
vn -0.000000 0.000000 1.000000
vn -0.000000 0.000000 1.000000
vn -0.000000 0.000000 1.000000
vn -0.000000 0.000000 1.000000
f 9/15/1 10/16/2 12/18/3
f 12/18/3 10/16/2 11/17/4
f 13/19/5 14/20/6 16/22/7
f 16/22/7 14/20/6 15/21/8
f 5/5/9 6/6/10 7/7/11
f 7/7/11 6/6/10 8/8/12
f 7/7/13 8/8/14 1/9/15
f 1/9/15 8/8/14 2/10/16
f 18/23/17 17/24/18 20/26/19
f 20/26/19 17/24/18 19/25/20
f 7/13/21 1/1/22 5/14/23
f 5/14/23 1/1/22 3/3/24
f 1/1/15 2/2/16 9/15/25
f 9/15/25 2/2/16 10/16/26
f 2/2/27 4/4/28 10/16/29
f 10/16/29 4/4/28 11/17/30
f 4/4/31 3/3/32 11/17/33
f 11/17/33 3/3/32 12/18/34
f 3/3/24 1/1/22 12/18/35
f 12/18/35 1/1/22 9/15/36
f 3/3/37 4/4/38 13/19/39
f 13/19/39 4/4/38 14/20/40
f 4/4/41 6/6/42 14/20/43
f 14/20/43 6/6/42 15/21/44
f 6/6/10 5/5/9 15/21/45
f 15/21/45 5/5/9 16/22/46
f 5/5/23 3/3/24 16/22/47
f 16/22/47 3/3/24 13/19/48
f 2/2/16 8/11/14 18/23/49
f 18/23/49 8/11/14 17/24/50
f 8/11/12 6/12/10 17/24/51
f 17/24/51 6/12/10 19/25/52
f 6/12/53 4/4/54 19/25/55
f 19/25/55 4/4/54 20/26/56
f 4/4/57 2/2/58 20/26/59
f 20/26/59 2/2/58 18/23/60
v -0.500000 -0.500000 0.500000
v 0.500000 -0.500000 0.500000
v -0.500000 0.500000 0.500000
v 0.500000 0.500000 0.500000
v -0.500000 0.500000 -0.500000
v 0.500000 0.500000 -0.500000
v -0.500000 -0.500000 -0.500000
v 0.500000 -0.500000 -0.500000
v -0.500000 -0.500000 3.500000
v 0.500000 -0.500000 3.500000
v 0.500000 0.500000 3.500000
v -0.500000 0.500000 3.500000
v -0.500000 1.500000 0.500000
v 0.500000 1.500000 0.500000
v 0.500000 1.500000 -0.500000
v -0.500000 1.500000 -0.500000
v 2.500000 -0.500000 -0.500000
v 2.500000 -0.500000 0.500000
v 2.500000 0.500000 -0.500000
v 2.500000 0.500000 0.500000
vt 0.375000 0.000000
vt 0.625000 0.000000
vt 0.375000 0.250000
vt 0.625000 0.250000
vt 0.375000 0.500000
vt 0.625000 0.500000
vt 0.375000 0.750000
vt 0.625000 0.750000
vt 0.375000 1.000000
vt 0.625000 1.000000
vt 0.875000 0.000000
vt 0.875000 0.250000
vt 0.125000 0.000000
vt 0.125000 0.250000
vt 0.375000 0.000000
vt 0.625000 0.000000
vt 0.625000 0.250000
vt 0.375000 0.250000
vt 0.375000 0.250000
vt 0.625000 0.250000
vt 0.625000 0.500000
vt 0.375000 0.500000
vt 0.625000 0.000000
vt 0.875000 0.000000
vt 0.875000 0.250000
vt 0.625000 0.250000
vn 0.000000 0.000000 1.000000
vn 0.000000 0.000000 1.000000
vn 0.000000 0.000000 1.000000
vn 0.000000 0.000000 1.000000
vn 0.000000 1.000000 0.000000
vn 0.000000 1.000000 0.000000
vn 0.000000 1.000000 0.000000
vn 0.000000 1.000000 0.000000
vn 0.000000 0.000000 -1.000000
vn 0.000000 0.000000 -1.000000
vn 0.000000 0.000000 -1.000000
vn 0.000000 0.000000 -1.000000
vn 0.000000 -1.000000 0.000000
vn 0.000000 -1.000000 0.000000
vn 0.000000 -1.000000 0.000000
vn 0.000000 -1.000000 0.000000
vn 1.000000 0.000000 0.000000
vn 1.000000 0.000000 0.000000
vn 1.000000 0.000000 0.000000
vn 1.000000 0.000000 0.000000
vn -1.000000 0.000000 0.000000
vn -1.000000 0.000000 0.000000
vn -1.000000 0.000000 0.000000
vn -1.000000 0.000000 0.000000
vn 0.000000 -1.000000 0.000000
vn 0.000000 -1.000000 0.000000
vn 1.000000 0.000000 0.000000
vn 1.000000 0.000000 0.000000
vn 1.000000 0.000000 0.000000
vn 1.000000 0.000000 0.000000
vn 0.000000 1.000000 0.000000
vn 0.000000 1.000000 0.000000
vn 0.000000 1.000000 0.000000
vn 0.000000 1.000000 0.000000
vn -1.000000 0.000000 0.000000
vn -1.000000 0.000000 0.000000
vn 0.000000 -0.000000 1.000000
vn 0.000000 -0.000000 1.000000
vn 0.000000 -0.000000 1.000000
vn 0.000000 -0.000000 1.000000
vn 1.000000 0.000000 0.000000
vn 1.000000 0.000000 0.000000
vn 1.000000 0.000000 0.000000
vn 1.000000 0.000000 0.000000
vn 0.000000 0.000000 -1.000000
vn 0.000000 0.000000 -1.000000
vn -1.000000 0.000000 0.000000
vn -1.000000 0.000000 0.000000
vn 0.000000 -1.000000 0.000000
vn 0.000000 -1.000000 0.000000
vn 0.000000 0.000000 -1.000000
vn 0.000000 0.000000 -1.000000
vn 0.000000 1.000000 0.000000
vn 0.000000 1.000000 0.000000
vn 0.000000 1.000000 0.000000
vn 0.000000 1.000000 0.000000
vn -0.000000 0.000000 1.000000
vn -0.000000 0.000000 1.000000
vn -0.000000 0.000000 1.000000
vn -0.000000 0.000000 1.000000
f 29/41/61 30/42/62 32/44/63
f 32/44/63 30/42/62 31/43/64
f 33/45/65 34/46/66 36/48/67
f 36/48/67 34/46/66 35/47/68
f 25/31/69 26/32/70 27/33/71
f 27/33/71 26/32/70 28/34/72
f 27/33/73 28/34/74 21/35/75
f 21/35/75 28/34/74 22/36/76
f 38/49/77 37/50/78 40/52/79
f 40/52/79 37/50/78 39/51/80
f 27/39/81 21/27/82 25/40/83
f 25/40/83 21/27/82 23/29/84
f 21/27/75 22/28/76 29/41/85
f 29/41/85 22/28/76 30/42/86
f 22/28/87 24/30/88 30/42/89
f 30/42/89 24/30/88 31/43/90
f 24/30/91 23/29/92 31/43/93
f 31/43/93 23/29/92 32/44/94
f 23/29/84 21/27/82 32/44/95
f 32/44/95 21/27/82 29/41/96
f 23/29/97 24/30/98 33/45/99
f 33/45/99 24/30/98 34/46/100
f 24/30/101 26/32/102 34/46/103
f 34/46/103 26/32/102 35/47/104
f 26/32/70 25/31/69 35/47/105
f 35/47/105 25/31/69 36/48/106
f 25/31/83 23/29/84 36/48/107
f 36/48/107 23/29/84 33/45/108
f 22/28/76 28/37/74 38/49/109
f 38/49/109 28/37/74 37/50/110
f 28/37/72 26/38/70 37/50/111
f 37/50/111 26/38/70 39/51/112
f 26/38/113 24/30/114 39/51/115
f 39/51/115 24/30/114 40/52/116
f 24/30/117 22/28/118 40/52/119
f 40/52/119 22/28/118 38/49/120
