ply
format ascii 1.0
comment Created by Blender 2.91.0 - www.blender.org
element vertex 72
property float x
property float y
property float z
property float nx
property float ny
property float nz
property uchar red
property uchar green
property uchar blue
property uchar alpha
element face 36
property list uchar uint vertex_indices
end_header
1.611990 -0.122398 -0.122398 1.000000 0.000000 0.000000 245 81 24 255
1.611990 0.122398 -0.122398 1.000000 0.000000 0.000000 245 81 24 255
1.611990 -0.122398 0.122398 1.000000 0.000000 0.000000 245 81 24 255
1.611990 0.122398 0.122398 1.000000 0.000000 0.000000 245 81 24 255
0.122398 -0.122398 1.611990 -0.000000 0.000000 1.000000 85 110 245 255
0.122398 0.122398 1.611990 -0.000000 0.000000 1.000000 85 110 245 255
-0.122398 -0.122398 1.611990 -0.000000 0.000000 1.000000 85 110 245 255
-0.122398 0.122398 1.611990 -0.000000 0.000000 1.000000 85 110 245 255
-0.122398 -0.122398 0.122398 -1.000000 -0.000000 -0.000000 91 143 255 255
-0.122398 0.122398 0.122398 -1.000000 -0.000000 -0.000000 91 143 255 255
-0.122398 -0.122398 -0.122398 -1.000000 -0.000000 -0.000000 91 143 255 255
-0.122398 0.122398 -0.122398 -1.000000 0.000000 -0.000000 91 143 255 255
-0.122398 -0.122398 -0.122398 0.000000 0.000000 -1.000000 91 143 255 255
-0.122398 0.122398 -0.122398 0.000000 0.000000 -1.000000 91 143 255 255
0.122398 -0.122398 -0.122398 0.000000 0.000000 -1.000000 91 143 255 255
0.122398 0.122398 -0.122398 0.000000 0.000000 -1.000000 91 143 255 255
0.122398 1.611990 -0.122398 -0.000000 1.000000 0.000000 82 168 17 255
-0.122398 1.611990 -0.122398 -0.000000 1.000000 0.000000 82 168 17 255
0.122398 1.611990 0.122398 -0.000000 1.000000 0.000000 82 168 17 255
-0.122398 1.611990 0.122398 -0.000000 1.000000 0.000000 82 168 17 255
-0.122398 -0.122398 -0.122398 0.000000 -1.000000 -0.000000 91 143 255 255
0.122398 -0.122398 -0.122398 0.000000 -1.000000 -0.000000 91 143 255 255
-0.122398 -0.122398 0.122398 0.000000 -1.000000 -0.000000 91 143 255 255
0.122398 -0.122398 0.122398 -0.000000 -1.000000 -0.000000 91 143 255 255
0.122398 0.122398 -0.122398 0.000000 0.000000 -1.000000 82 168 17 255
-0.122398 0.122398 -0.122398 0.000000 0.000000 -1.000000 82 168 17 255
0.122398 1.611990 -0.122398 0.000000 0.000000 -1.000000 82 168 17 255
-0.122398 1.611990 -0.122398 0.000000 0.000000 -1.000000 82 168 17 255
-0.122398 0.122398 -0.122398 -1.000000 0.000000 -0.000000 82 168 17 255
-0.122398 0.122398 0.122398 -1.000000 0.000000 -0.000000 82 168 17 255
-0.122398 1.611990 -0.122398 -1.000000 0.000000 -0.000000 82 168 17 255
-0.122398 1.611990 0.122398 -1.000000 -0.000000 -0.000000 82 168 17 255
-0.122398 0.122398 0.122398 -0.000000 0.000000 1.000000 82 168 17 255
0.122398 0.122398 0.122398 -0.000000 0.000000 1.000000 82 168 17 255
-0.122398 1.611990 0.122398 -0.000000 0.000000 1.000000 82 168 17 255
0.122398 1.611990 0.122398 -0.000000 0.000000 1.000000 82 168 17 255
0.122398 0.122398 0.122398 1.000000 0.000000 0.000000 82 168 17 255
0.122398 0.122398 -0.122398 1.000000 0.000000 0.000000 82 168 17 255
0.122398 1.611990 0.122398 1.000000 0.000000 0.000000 82 168 17 255
0.122398 1.611990 -0.122398 1.000000 0.000000 0.000000 82 168 17 255
0.122398 0.122398 -0.122398 0.000000 0.000000 -1.000000 245 81 24 255
1.611990 -0.122398 -0.122398 0.000000 0.000000 -1.000000 245 81 24 255
0.122398 -0.122398 -0.122398 0.000000 0.000000 -1.000000 245 81 24 255
1.611990 0.122398 -0.122398 0.000000 0.000000 -1.000000 245 81 24 255
0.122398 0.122398 -0.122398 0.000000 1.000000 0.000000 245 81 24 255
0.122398 0.122398 0.122398 0.000000 1.000000 0.000000 245 81 24 255
1.611990 0.122398 -0.122398 0.000000 1.000000 0.000000 245 81 24 255
1.611990 0.122398 0.122398 0.000000 1.000000 0.000000 245 81 24 255
0.122398 0.122398 0.122398 -0.000000 0.000000 1.000000 245 81 24 255
0.122398 -0.122398 0.122398 -0.000000 0.000000 1.000000 245 81 24 255
1.611990 0.122398 0.122398 -0.000000 0.000000 1.000000 245 81 24 255
1.611990 -0.122398 0.122398 -0.000000 0.000000 1.000000 245 81 24 255
0.122398 -0.122398 0.122398 -0.000000 -1.000000 0.000000 245 81 24 255
0.122398 -0.122398 -0.122398 -0.000000 -1.000000 0.000000 245 81 24 255
1.611990 -0.122398 0.122398 -0.000000 -1.000000 0.000000 245 81 24 255
1.611990 -0.122398 -0.122398 0.000000 -1.000000 -0.000000 245 81 24 255
0.122398 -0.122398 0.122398 1.000000 0.000000 0.000000 85 110 245 255
0.122398 0.122398 0.122398 1.000000 0.000000 0.000000 85 110 245 255
0.122398 -0.122398 1.611990 1.000000 0.000000 0.000000 85 110 245 255
0.122398 0.122398 1.611990 1.000000 0.000000 0.000000 85 110 245 255
0.122398 0.122398 0.122398 -0.000000 1.000000 0.000000 85 110 245 255
-0.122398 0.122398 0.122398 -0.000000 1.000000 0.000000 85 110 245 255
0.122398 0.122398 1.611990 -0.000000 1.000000 0.000000 85 110 245 255
-0.122398 0.122398 1.611990 -0.000000 1.000000 0.000000 85 110 245 255
-0.122398 0.122398 0.122398 -1.000000 0.000000 -0.000000 85 110 245 255
-0.122398 -0.122398 0.122398 -1.000000 0.000000 -0.000000 85 110 245 255
-0.122398 0.122398 1.611990 -1.000000 0.000000 -0.000000 85 110 245 255
-0.122398 -0.122398 1.611990 -1.000000 0.000000 -0.000000 85 110 245 255
-0.122398 -0.122398 0.122398 0.000000 -1.000000 -0.000000 85 110 245 255
0.122398 -0.122398 0.122398 0.000000 -1.000000 -0.000000 85 110 245 255
-0.122398 -0.122398 1.611990 0.000000 -1.000000 -0.000000 85 110 245 255
0.122398 -0.122398 1.611990 -0.000000 -1.000000 -0.000000 85 110 245 255
3 0 1 2
3 2 1 3
3 4 5 6
3 6 5 7
3 8 9 10
3 10 9 11
3 12 13 14
3 14 13 15
3 16 17 18
3 18 17 19
3 20 21 22
3 22 21 23
3 24 25 26
3 26 25 27
3 28 29 30
3 30 29 31
3 32 33 34
3 34 33 35
3 36 37 38
3 38 37 39
3 40 41 42
3 41 40 43
3 44 45 46
3 46 45 47
3 48 49 50
3 50 49 51
3 52 53 54
3 53 55 54
3 56 57 58
3 58 57 59
3 60 61 62
3 62 61 63
3 64 65 66
3 66 65 67
3 68 69 70
3 70 69 71
