ply
format ascii 1.0
comment Created by Blender 2.91.0 - www.blender.org
element vertex 128
property float x
property float y
property float z
property float nx
property float ny
property float nz
property uchar red
property uchar green
property uchar blue
property uchar alpha
element face 196
property list uchar uint vertex_indices
end_header
0.166040 -0.923880 0.344786 0.176122 -0.913877 0.365734 91 143 255 255
0.299194 -0.923880 0.238599 0.317362 -0.913877 0.253090 91 143 255 255
0.306802 -0.707107 0.637081 0.312571 -0.693472 0.649098 91 143 255 255
0.552838 -0.707107 0.440874 0.563250 -0.693472 0.449171 91 143 255 255
0.373089 -0.923880 0.085155 0.395734 -0.913877 0.090304 91 143 255 255
0.689378 -0.707107 0.157346 0.702384 -0.693472 0.160314 91 143 255 255
0.373089 -0.923880 -0.085155 0.395734 -0.913877 -0.090304 91 143 255 255
0.689378 -0.707107 -0.157346 0.702384 -0.693472 -0.160314 91 143 255 255
0.299194 -0.923880 -0.238599 0.317362 -0.913877 -0.253090 91 143 255 255
0.552838 -0.707107 -0.440874 0.563250 -0.693472 -0.449171 91 143 255 255
0.166040 -0.923880 -0.344786 0.176122 -0.913877 -0.365734 91 143 255 255
0.306802 -0.707107 -0.637081 0.312571 -0.693472 -0.649098 91 143 255 255
0.000000 -0.923880 -0.382683 0.000000 -0.913877 -0.405927 91 143 255 255
0.000000 -0.707107 -0.707107 0.000000 -0.693472 -0.720450 91 143 255 255
-0.166040 -0.923880 -0.344786 -0.176122 -0.913877 -0.365734 91 143 255 255
-0.306802 -0.707107 -0.637081 -0.312571 -0.693472 -0.649098 91 143 255 255
-0.299194 -0.923880 -0.238599 -0.317362 -0.913877 -0.253090 91 143 255 255
-0.552838 -0.707107 -0.440874 -0.563250 -0.693472 -0.449171 91 143 255 255
-0.373089 -0.923880 -0.085155 -0.395734 -0.913877 -0.090304 91 143 255 255
-0.689378 -0.707107 -0.157346 -0.702384 -0.693472 -0.160314 91 143 255 255
-0.373089 -0.923880 0.085155 -0.395734 -0.913877 0.090304 91 143 255 255
-0.689378 -0.707107 0.157346 -0.702384 -0.693472 0.160314 91 143 255 255
-0.299194 -0.923880 0.238599 -0.317362 -0.913877 0.253090 91 143 255 255
-0.552838 -0.707107 0.440874 -0.563250 -0.693472 0.449171 91 143 255 255
-0.166040 -0.923880 0.344786 -0.176122 -0.913877 0.365734 91 143 255 255
-0.306802 -0.707107 0.637081 -0.312571 -0.693472 0.649098 91 143 255 255
0.000000 -0.923880 0.382683 0.000000 -0.913877 0.405927 91 143 255 255
0.000000 -0.707107 0.707107 0.000000 -0.693472 0.720450 91 143 255 255
0.400856 -0.382683 0.832387 0.402509 -0.373211 0.835841 91 143 255 255
0.722318 -0.382683 0.576030 0.725333 -0.373211 0.578417 91 143 255 255
0.900716 -0.382683 0.205583 0.904447 -0.373211 0.206427 91 143 255 255
0.900716 -0.382683 -0.205582 0.904447 -0.373211 -0.206427 91 143 255 255
0.722318 -0.382683 -0.576029 0.725333 -0.373211 -0.578417 91 143 255 255
0.400856 -0.382683 -0.832386 0.402509 -0.373211 -0.835841 91 143 255 255
0.000000 -0.382683 -0.923879 0.000000 -0.373211 -0.927732 91 143 255 255
-0.400856 -0.382683 -0.832387 -0.402509 -0.373211 -0.835841 91 143 255 255
-0.722318 -0.382683 -0.576029 -0.725333 -0.373211 -0.578417 91 143 255 255
-0.900716 -0.382683 -0.205583 -0.904447 -0.373211 -0.206427 91 143 255 255
-0.900716 -0.382683 0.205582 -0.904447 -0.373211 0.206427 91 143 255 255
-0.722318 -0.382683 0.576029 -0.725333 -0.373211 0.578417 91 143 255 255
-0.400856 -0.382683 0.832387 -0.402509 -0.373211 0.835841 91 143 255 255
0.000000 -0.382683 0.923880 0.000000 -0.373211 0.927732 91 143 255 255
0.433883 0.000000 0.900969 0.433882 0.000000 0.900967 91 143 255 255
0.781831 0.000000 0.623490 0.781823 0.000000 0.623463 91 143 255 255
0.974928 0.000000 0.222521 0.974914 0.000000 0.222510 91 143 255 255
0.974928 0.000000 -0.222521 0.974914 0.000000 -0.222510 91 143 255 255
0.781832 0.000000 -0.623490 0.781823 0.000000 -0.623463 91 143 255 255
0.433884 0.000000 -0.900969 0.433882 0.000000 -0.900967 91 143 255 255
0.000000 0.000000 -1.000000 0.000000 0.000000 -1.000000 91 143 255 255
-0.433884 -0.000000 -0.900969 -0.433882 0.000000 -0.900967 91 143 255 255
-0.781831 -0.000000 -0.623490 -0.781823 0.000000 -0.623463 91 143 255 255
-0.974928 -0.000000 -0.222521 -0.974914 0.000000 -0.222510 91 143 255 255
-0.974928 -0.000000 0.222521 -0.974914 0.000000 0.222510 91 143 255 255
-0.781832 -0.000000 0.623490 -0.781823 0.000000 0.623463 91 143 255 255
-0.433884 -0.000000 0.900969 -0.433882 0.000000 0.900967 91 143 255 255
0.000000 0.000000 1.000000 0.000000 0.000000 0.999969 91 143 255 255
0.433883 0.000000 0.900969 0.433882 0.000000 0.900967 255 131 90 255
0.781831 0.000000 0.623490 0.781823 0.000000 0.623463 255 131 90 255
0.400856 0.382683 0.832387 0.402509 0.373211 0.835841 255 131 90 255
0.722318 0.382683 0.576030 0.725333 0.373211 0.578417 255 131 90 255
0.974928 0.000000 0.222521 0.974914 0.000000 0.222510 255 131 90 255
0.900716 0.382683 0.205583 0.904447 0.373211 0.206427 255 131 90 255
0.974928 0.000000 -0.222521 0.974914 0.000000 -0.222510 255 131 90 255
0.900716 0.382683 -0.205582 0.904447 0.373211 -0.206427 255 131 90 255
0.781832 0.000000 -0.623490 0.781823 0.000000 -0.623463 255 131 90 255
0.722318 0.382683 -0.576029 0.725303 0.373211 -0.578417 255 131 90 255
0.433884 0.000000 -0.900969 0.433882 0.000000 -0.900967 255 131 90 255
0.400856 0.382683 -0.832386 0.402509 0.373211 -0.835841 255 131 90 255
0.000000 0.000000 -1.000000 0.000000 0.000000 -1.000000 255 131 90 255
-0.000000 0.382683 -0.923879 0.000000 0.373211 -0.927732 255 131 90 255
-0.433884 -0.000000 -0.900969 -0.433882 0.000000 -0.900967 255 131 90 255
-0.400856 0.382683 -0.832387 -0.402509 0.373211 -0.835841 255 131 90 255
-0.781831 -0.000000 -0.623490 -0.781823 0.000000 -0.623463 255 131 90 255
-0.722318 0.382683 -0.576029 -0.725333 0.373211 -0.578417 255 131 90 255
-0.974928 -0.000000 -0.222521 -0.974914 0.000000 -0.222510 255 131 90 255
-0.900716 0.382683 -0.205583 -0.904447 0.373211 -0.206427 255 131 90 255
-0.974928 -0.000000 0.222521 -0.974914 0.000000 0.222510 255 131 90 255
-0.900716 0.382683 0.205582 -0.904447 0.373211 0.206427 255 131 90 255
-0.781832 -0.000000 0.623490 -0.781823 0.000000 0.623463 255 131 90 255
-0.722318 0.382683 0.576029 -0.725333 0.373211 0.578417 255 131 90 255
-0.433884 -0.000000 0.900969 -0.433882 0.000000 0.900967 255 131 90 255
-0.400856 0.382683 0.832387 -0.402509 0.373211 0.835841 255 131 90 255
0.000000 0.000000 1.000000 0.000000 0.000000 0.999969 255 131 90 255
-0.000000 0.382683 0.923880 0.000000 0.373211 0.927732 255 131 90 255
0.306802 0.707107 0.637081 0.312571 0.693472 0.649098 255 131 90 255
0.552838 0.707107 0.440874 0.563250 0.693472 0.449171 255 131 90 255
0.689378 0.707107 0.157346 0.702384 0.693472 0.160314 255 131 90 255
0.689378 0.707107 -0.157346 0.702384 0.693472 -0.160314 255 131 90 255
0.552838 0.707107 -0.440874 0.563250 0.693472 -0.449171 255 131 90 255
0.306802 0.707107 -0.637081 0.312571 0.693472 -0.649098 255 131 90 255
-0.000000 0.707107 -0.707107 0.000000 0.693472 -0.720450 255 131 90 255
-0.306802 0.707107 -0.637081 -0.312571 0.693472 -0.649098 255 131 90 255
-0.552838 0.707107 -0.440874 -0.563250 0.693472 -0.449171 255 131 90 255
-0.689378 0.707107 -0.157346 -0.702384 0.693472 -0.160314 255 131 90 255
-0.689378 0.707107 0.157346 -0.702384 0.693472 0.160314 255 131 90 255
-0.552838 0.707107 0.440874 -0.563250 0.693472 0.449171 255 131 90 255
-0.306802 0.707107 0.637081 -0.312571 0.693472 0.649098 255 131 90 255
-0.000000 0.707107 0.707107 0.000000 0.693472 0.720450 255 131 90 255
0.306802 0.707107 0.637081 0.312571 0.693472 0.649098 91 143 255 255
0.552838 0.707107 0.440874 0.563250 0.693472 0.449171 91 143 255 255
0.166040 0.923880 0.344786 0.176122 0.913877 0.365734 91 143 255 255
0.299194 0.923880 0.238599 0.317362 0.913877 0.253090 91 143 255 255
0.689378 0.707107 0.157346 0.702384 0.693472 0.160314 91 143 255 255
0.373089 0.923880 0.085155 0.395734 0.913877 0.090304 91 143 255 255
0.689378 0.707107 -0.157346 0.702384 0.693472 -0.160314 91 143 255 255
0.373089 0.923880 -0.085155 0.395734 0.913877 -0.090304 91 143 255 255
0.552838 0.707107 -0.440874 0.563250 0.693472 -0.449171 91 143 255 255
0.299194 0.923880 -0.238599 0.317362 0.913877 -0.253090 91 143 255 255
0.306802 0.707107 -0.637081 0.312571 0.693472 -0.649098 91 143 255 255
0.166040 0.923880 -0.344786 0.176122 0.913877 -0.365734 91 143 255 255
-0.000000 0.707107 -0.707107 0.000000 0.693472 -0.720450 91 143 255 255
-0.000000 0.923880 -0.382683 0.000000 0.913877 -0.405927 91 143 255 255
-0.306802 0.707107 -0.637081 -0.312571 0.693472 -0.649098 91 143 255 255
-0.166040 0.923880 -0.344786 -0.176122 0.913877 -0.365734 91 143 255 255
-0.552838 0.707107 -0.440874 -0.563250 0.693472 -0.449171 91 143 255 255
-0.299194 0.923880 -0.238599 -0.317362 0.913877 -0.253090 91 143 255 255
-0.689378 0.707107 -0.157346 -0.702384 0.693472 -0.160314 91 143 255 255
-0.373089 0.923880 -0.085155 -0.395734 0.913877 -0.090304 91 143 255 255
-0.689378 0.707107 0.157346 -0.702384 0.693472 0.160314 91 143 255 255
-0.373089 0.923880 0.085155 -0.395734 0.913877 0.090304 91 143 255 255
-0.552838 0.707107 0.440874 -0.563250 0.693472 0.449171 91 143 255 255
-0.299194 0.923880 0.238599 -0.317362 0.913877 0.253090 91 143 255 255
-0.306802 0.707107 0.637081 -0.312571 0.693472 0.649098 91 143 255 255
-0.166040 0.923880 0.344786 -0.176122 0.913877 0.365734 91 143 255 255
-0.000000 0.707107 0.707107 0.000000 0.693472 0.720450 91 143 255 255
-0.000000 0.923880 0.382683 0.000000 0.913877 0.405927 91 143 255 255
0.000000 -1.000000 0.000000 0.000000 -1.000000 0.000000 91 143 255 255
-0.000000 1.000000 0.000000 0.000000 0.999969 0.000000 91 143 255 255
3 0 1 2
3 2 1 3
3 1 4 3
3 3 4 5
3 4 6 5
3 5 6 7
3 6 8 7
3 7 8 9
3 8 10 9
3 9 10 11
3 10 12 11
3 11 12 13
3 12 14 13
3 13 14 15
3 14 16 15
3 15 16 17
3 16 18 17
3 17 18 19
3 18 20 19
3 19 20 21
3 20 22 21
3 21 22 23
3 22 24 23
3 23 24 25
3 24 26 25
3 25 26 27
3 26 0 27
3 27 0 2
3 2 3 28
3 28 3 29
3 3 5 29
3 29 5 30
3 5 7 30
3 30 7 31
3 7 9 31
3 31 9 32
3 9 11 32
3 32 11 33
3 11 13 33
3 33 13 34
3 13 15 34
3 34 15 35
3 15 17 35
3 35 17 36
3 17 19 36
3 36 19 37
3 19 21 37
3 37 21 38
3 21 23 38
3 38 23 39
3 23 25 39
3 39 25 40
3 25 27 40
3 40 27 41
3 27 2 41
3 41 2 28
3 28 29 42
3 42 29 43
3 29 30 43
3 43 30 44
3 30 31 44
3 44 31 45
3 31 32 45
3 45 32 46
3 32 33 46
3 46 33 47
3 33 34 47
3 47 34 48
3 34 35 48
3 48 35 49
3 35 36 49
3 49 36 50
3 36 37 50
3 50 37 51
3 37 38 51
3 51 38 52
3 38 39 52
3 52 39 53
3 39 40 53
3 53 40 54
3 40 41 54
3 54 41 55
3 41 28 55
3 55 28 42
3 56 57 58
3 58 57 59
3 57 60 59
3 59 60 61
3 60 62 61
3 61 62 63
3 62 64 63
3 63 64 65
3 64 66 65
3 65 66 67
3 66 68 67
3 67 68 69
3 68 70 69
3 69 70 71
3 70 72 71
3 71 72 73
3 72 74 73
3 73 74 75
3 74 76 75
3 75 76 77
3 76 78 77
3 77 78 79
3 78 80 79
3 79 80 81
3 80 82 81
3 81 82 83
3 82 56 83
3 83 56 58
3 58 59 84
3 84 59 85
3 59 61 85
3 85 61 86
3 61 63 86
3 86 63 87
3 63 65 87
3 87 65 88
3 65 67 88
3 88 67 89
3 67 69 89
3 89 69 90
3 69 71 90
3 90 71 91
3 71 73 91
3 91 73 92
3 73 75 92
3 92 75 93
3 75 77 93
3 93 77 94
3 77 79 94
3 94 79 95
3 79 81 95
3 95 81 96
3 81 83 96
3 96 83 97
3 83 58 97
3 97 58 84
3 98 99 100
3 100 99 101
3 99 102 101
3 101 102 103
3 102 104 103
3 103 104 105
3 104 106 105
3 105 106 107
3 106 108 107
3 107 108 109
3 108 110 109
3 109 110 111
3 110 112 111
3 111 112 113
3 112 114 113
3 113 114 115
3 114 116 115
3 115 116 117
3 116 118 117
3 117 118 119
3 118 120 119
3 119 120 121
3 120 122 121
3 121 122 123
3 122 124 123
3 123 124 125
3 124 98 125
3 125 98 100
3 1 0 126
3 4 1 126
3 6 4 126
3 8 6 126
3 10 8 126
3 12 10 126
3 14 12 126
3 16 14 126
3 18 16 126
3 20 18 126
3 22 20 126
3 24 22 126
3 26 24 126
3 0 26 126
3 100 101 127
3 101 103 127
3 103 105 127
3 105 107 127
3 107 109 127
3 109 111 127
3 111 113 127
3 113 115 127
3 115 117 127
3 117 119 127
3 119 121 127
3 121 123 127
3 123 125 127
3 125 100 127
