ply
format ascii 1.0
comment Created by Blender 2.91.0 - www.blender.org
element vertex 32
property float x
property float y
property float z
property float nx
property float ny
property float nz
property uchar red
property uchar green
property uchar blue
property uchar alpha
element face 12
property list uchar uint vertex_indices
end_header
1.000000 1.000000 1.000000 -0.000000 1.000000 0.000000 255 234 238 255
-1.000000 1.000000 -1.000000 -0.000000 1.000000 0.000000 255 234 238 255
-1.000000 1.000000 1.000000 -0.000000 1.000000 0.000000 255 234 238 255
-1.000000 1.000000 -1.000000 0.000000 0.000000 -1.000000 255 234 238 255
1.000000 -1.000000 -1.000000 0.000000 0.000000 -1.000000 255 234 238 255
-1.000000 -1.000000 -1.000000 0.000000 0.000000 -1.000000 255 234 238 255
1.000000 1.000000 -1.000000 1.000000 -0.000000 0.000000 60 123 255 255
1.000000 -1.000000 1.000000 1.000000 -0.000000 0.000000 60 123 255 255
1.000000 -1.000000 -1.000000 1.000000 -0.000000 0.000000 60 123 255 255
-1.000000 -1.000000 1.000000 -0.000000 -1.000000 -0.000000 60 123 255 255
1.000000 -1.000000 -1.000000 -0.000000 -1.000000 -0.000000 60 123 255 255
1.000000 -1.000000 1.000000 -0.000000 -1.000000 -0.000000 60 123 255 255
-1.000000 1.000000 1.000000 -1.000000 0.000000 0.000000 255 234 238 255
-1.000000 -1.000000 -1.000000 -1.000000 0.000000 0.000000 255 234 238 255
-1.000000 -1.000000 1.000000 -1.000000 0.000000 0.000000 255 234 238 255
1.000000 1.000000 1.000000 0.000000 -0.000000 1.000000 255 234 238 255
-1.000000 -1.000000 1.000000 0.000000 -0.000000 1.000000 255 234 238 255
1.000000 -1.000000 1.000000 0.000000 -0.000000 1.000000 255 234 238 255
1.000000 1.000000 1.000000 0.000000 1.000000 0.000000 60 123 255 255
1.000000 1.000000 -1.000000 0.000000 1.000000 0.000000 60 123 255 255
-1.000000 1.000000 -1.000000 0.000000 1.000000 0.000000 60 123 255 255
1.000000 1.000000 -1.000000 0.000000 0.000000 -1.000000 255 234 238 255
1.000000 1.000000 -1.000000 1.000000 -0.000000 0.000000 255 116 94 255
1.000000 1.000000 1.000000 1.000000 -0.000000 0.000000 255 116 94 255
1.000000 -1.000000 1.000000 1.000000 -0.000000 0.000000 255 116 94 255
-1.000000 -1.000000 1.000000 0.000000 -1.000000 0.000000 255 234 238 255
-1.000000 -1.000000 -1.000000 0.000000 -1.000000 0.000000 255 234 238 255
1.000000 -1.000000 -1.000000 0.000000 -1.000000 0.000000 255 234 238 255
-1.000000 1.000000 -1.000000 -1.000000 0.000000 0.000000 255 234 238 255
1.000000 1.000000 1.000000 0.000000 0.000000 1.000000 60 123 255 255
-1.000000 1.000000 1.000000 0.000000 0.000000 1.000000 60 123 255 255
-1.000000 -1.000000 1.000000 0.000000 0.000000 1.000000 60 123 255 255
3 0 1 2
3 3 4 5
3 6 7 8
3 9 10 11
3 12 13 14
3 15 16 17
3 18 19 20
3 3 21 4
3 22 23 24
3 25 26 27
3 12 28 13
3 29 30 31
