# This file uses centimeters as units for non-parametric coordinates.

v 0.501136 -1.379507 -0.867992
v -0.501135 -1.379507 -0.867992
v -1.002271 -1.379507 -0.000000
v -0.501135 -1.379507 0.867992
v 0.501135 -1.379507 0.867992
v 1.002271 -1.379507 0.000000
v 0.810854 -0.526925 -1.404440
v -0.810854 -0.526925 -1.404441
v -1.621708 -0.526925 -0.000000
v -0.810854 -0.526925 1.404440
v 0.810854 -0.526925 1.404441
v 1.621708 -0.526925 0.000000
v 0.810854 0.526925 -1.404440
v -0.810854 0.526925 -1.404441
v -1.621708 0.526925 -0.000000
v -0.810854 0.526925 1.404440
v 0.810854 0.526925 1.404441
v 1.621708 0.526925 0.000000
v 0.501136 1.379507 -0.867992
v -0.501135 1.379507 -0.867992
v -1.002271 1.379507 -0.000000
v -0.501135 1.379507 0.867992
v 0.501135 1.379507 0.867992
v 1.002271 1.379507 0.000000
v 0.000000 -1.705165 0.000000
v 0.000000 1.705165 0.000000
vt 0.000000 0.200000
vt 0.166667 0.200000
vt 0.333333 0.200000
vt 0.500000 0.200000
vt 0.666667 0.200000
vt 0.833333 0.200000
vt 1.000000 0.200000
vt 0.000000 0.400000
vt 0.166667 0.400000
vt 0.333333 0.400000
vt 0.500000 0.400000
vt 0.666667 0.400000
vt 0.833333 0.400000
vt 1.000000 0.400000
vt 0.000000 0.600000
vt 0.166667 0.600000
vt 0.333333 0.600000
vt 0.500000 0.600000
vt 0.666667 0.600000
vt 0.833333 0.600000
vt 1.000000 0.600000
vt 0.000000 0.800000
vt 0.166667 0.800000
vt 0.333333 0.800000
vt 0.500000 0.800000
vt 0.666667 0.800000
vt 0.833333 0.800000
vt 1.000000 0.800000
vt 0.083333 0.000000
vt 0.250000 0.000000
vt 0.416667 0.000000
vt 0.583333 0.000000
vt 0.750000 0.000000
vt 0.916667 0.000000
vt 0.083333 1.000000
vt 0.250000 1.000000
vt 0.416667 1.000000
vt 0.583333 1.000000
vt 0.750000 1.000000
vt 0.916667 1.000000
vn 0.000000 -0.532556 -0.846395
vn 0.000000 -0.532555 -0.846395
vn 0.000000 -0.532555 -0.846395
vn 0.000000 -0.532555 -0.846395
vn -0.733000 -0.532556 -0.423198
vn -0.733000 -0.532556 -0.423198
vn -0.733000 -0.532555 -0.423198
vn -0.733000 -0.532555 -0.423198
vn -0.733000 -0.532555 0.423197
vn -0.733000 -0.532556 0.423197
vn -0.733000 -0.532556 0.423197
vn -0.733000 -0.532556 0.423197
vn 0.000000 -0.532556 0.846395
vn -0.000000 -0.532555 0.846395
vn -0.000000 -0.532555 0.846395
vn -0.000000 -0.532555 0.846395
vn 0.733000 -0.532555 0.423198
vn 0.733000 -0.532555 0.423198
vn 0.733000 -0.532555 0.423198
vn 0.733000 -0.532555 0.423198
vn 0.733000 -0.532556 -0.423197
vn 0.733000 -0.532556 -0.423197
vn 0.733000 -0.532556 -0.423197
vn 0.733000 -0.532555 -0.423197
vn 0.000000 0.000000 -1.000000
vn 0.000000 0.000000 -1.000000
vn 0.000000 0.000000 -1.000000
vn 0.000000 0.000000 -1.000000
vn -0.866025 0.000000 -0.500000
vn -0.866025 0.000000 -0.500000
vn -0.866025 0.000000 -0.500000
vn -0.866025 0.000000 -0.500000
vn -0.866026 0.000000 0.500000
vn -0.866026 0.000000 0.500000
vn -0.866026 0.000000 0.500000
vn -0.866026 0.000000 0.500000
vn -0.000000 0.000000 1.000000
vn -0.000000 0.000000 1.000000
vn -0.000000 0.000000 1.000000
vn 0.000000 0.000000 1.000000
vn 0.866025 0.000000 0.500000
vn 0.866025 0.000000 0.500000
vn 0.866025 0.000000 0.500000
vn 0.866025 0.000000 0.500000
vn 0.866026 0.000000 -0.500000
vn 0.866026 0.000000 -0.500000
vn 0.866026 0.000000 -0.500000
vn 0.866026 0.000000 -0.500000
vn 0.000000 0.532555 -0.846395
vn 0.000000 0.532555 -0.846395
vn 0.000000 0.532555 -0.846395
vn 0.000000 0.532555 -0.846395
vn -0.733000 0.532555 -0.423198
vn -0.733000 0.532555 -0.423198
vn -0.733000 0.532555 -0.423198
vn -0.733000 0.532556 -0.423198
vn -0.733000 0.532556 0.423197
vn -0.733000 0.532555 0.423197
vn -0.733000 0.532556 0.423197
vn -0.733000 0.532555 0.423197
vn -0.000000 0.532555 0.846395
vn -0.000000 0.532555 0.846395
vn -0.000000 0.532555 0.846395
vn 0.000000 0.532556 0.846395
vn 0.733000 0.532555 0.423198
vn 0.733000 0.532555 0.423198
vn 0.733000 0.532555 0.423198
vn 0.733000 0.532555 0.423197
vn 0.733000 0.532556 -0.423197
vn 0.733000 0.532556 -0.423197
vn 0.733000 0.532555 -0.423197
vn 0.733000 0.532555 -0.423197
vn 0.000000 -0.936272 -0.351275
vn 0.000000 -0.936272 -0.351275
vn 0.000000 -0.936272 -0.351275
vn -0.304213 -0.936272 -0.175638
vn -0.304213 -0.936272 -0.175638
vn -0.304213 -0.936272 -0.175638
vn -0.304213 -0.936272 0.175638
vn -0.304213 -0.936272 0.175638
vn -0.304213 -0.936272 0.175638
vn 0.000000 -0.936272 0.351275
vn 0.000000 -0.936272 0.351275
vn 0.000000 -0.936272 0.351275
vn 0.304213 -0.936272 0.175638
vn 0.304213 -0.936272 0.175638
vn 0.304213 -0.936272 0.175638
vn 0.304213 -0.936272 -0.175638
vn 0.304213 -0.936272 -0.175638
vn 0.304213 -0.936272 -0.175638
vn 0.000000 0.936272 -0.351275
vn 0.000000 0.936272 -0.351275
vn 0.000000 0.936272 -0.351275
vn -0.304213 0.936272 -0.175638
vn -0.304213 0.936272 -0.175638
vn -0.304213 0.936272 -0.175638
vn -0.304213 0.936272 0.175638
vn -0.304213 0.936272 0.175638
vn -0.304213 0.936272 0.175638
vn 0.000000 0.936272 0.351275
vn 0.000000 0.936272 0.351275
vn 0.000000 0.936272 0.351275
vn 0.304213 0.936272 0.175638
vn 0.304213 0.936272 0.175638
vn 0.304213 0.936272 0.175638
vn 0.304213 0.936272 -0.175638
vn 0.304213 0.936272 -0.175638
vn 0.304213 0.936272 -0.175638
f 1/1/1 2/2/2 7/8/3
f 7/8/3 2/2/2 8/9/4
f 2/2/5 3/3/6 8/9/7
f 8/9/7 3/3/6 9/10/8
f 3/3/9 4/4/10 9/10/11
f 9/10/11 4/4/10 10/11/12
f 4/4/13 5/5/14 10/11/15
f 10/11/15 5/5/14 11/12/16
f 5/5/17 6/6/18 11/12/19
f 11/12/19 6/6/18 12/13/20
f 6/6/21 1/7/22 12/13/23
f 12/13/23 1/7/22 7/14/24
f 7/8/25 8/9/26 13/15/27
f 13/15/27 8/9/26 14/16/28
f 8/9/29 9/10/30 14/16/31
f 14/16/31 9/10/30 15/17/32
f 9/10/33 10/11/34 15/17/35
f 15/17/35 10/11/34 16/18/36
f 10/11/37 11/12/38 16/18/39
f 16/18/39 11/12/38 17/19/40
f 11/12/41 12/13/42 17/19/43
f 17/19/43 12/13/42 18/20/44
f 12/13/45 7/14/46 18/20/47
f 18/20/47 7/14/46 13/21/48
f 13/15/49 14/16/50 19/22/51
f 19/22/51 14/16/50 20/23/52
f 14/16/53 15/17/54 20/23/55
f 20/23/55 15/17/54 21/24/56
f 15/17/57 16/18/58 21/24/59
f 21/24/59 16/18/58 22/25/60
f 16/18/61 17/19/62 22/25/63
f 22/25/63 17/19/62 23/26/64
f 17/19/65 18/20/66 23/26/67
f 23/26/67 18/20/66 24/27/68
f 18/20/69 13/21/70 24/27/71
f 24/27/71 13/21/70 19/28/72
f 2/2/73 1/1/74 25/29/75
f 3/3/76 2/2/77 25/30/78
f 4/4/79 3/3/80 25/31/81
f 5/5/82 4/4/83 25/32/84
f 6/6/85 5/5/86 25/33/87
f 1/7/88 6/6/89 25/34/90
f 19/22/91 20/23/92 26/35/93
f 20/23/94 21/24/95 26/36/96
f 21/24/97 22/25/98 26/37/99
f 22/25/100 23/26/101 26/38/102
f 23/26/103 24/27/104 26/39/105
f 24/27/106 19/28/107 26/40/108
