ply
format ascii 1.0
comment Created by Blender 2.91.0 - www.blender.org
element vertex 19
property float x
property float y
property float z
property float nx
property float ny
property float nz
property uchar red
property uchar green
property uchar blue
property uchar alpha
element face 24
property list uchar uint vertex_indices
end_header
1.963106 -3.400201 0.000001 0.000000 0.000000 -0.999969 239 114 41 255
0.000000 -3.926213 0.000001 0.000000 0.000000 -0.999969 239 114 41 255
0.981553 -1.700101 0.000000 0.000000 0.000000 -1.000000 239 114 41 255
-0.981554 -1.700100 0.000000 0.000000 0.000000 -1.000000 239 114 41 255
-1.963107 -3.400201 0.000001 0.000000 0.000000 -0.999969 239 114 41 255
-3.400201 -1.963107 0.000000 0.000000 0.000000 -0.999969 239 114 41 255
-3.926213 0.000000 0.000000 0.000000 0.000000 -1.000000 239 114 41 255
-1.963107 0.000000 0.000000 0.000000 0.000000 -0.999969 239 114 41 255
0.000000 0.000000 0.000000 0.000000 0.000000 -1.000000 239 114 41 255
-3.400200 1.963107 -0.000000 0.000000 0.000000 -1.000000 239 114 41 255
-0.981553 1.700100 -0.000000 0.000000 0.000000 -1.000000 239 114 41 255
-1.963106 3.400201 -0.000001 0.000000 0.000000 -0.999969 239 114 41 255
0.000001 3.926213 -0.000001 0.000000 0.000000 -1.000000 239 114 41 255
1.963107 3.400200 -0.000001 0.000000 0.000000 -1.000000 239 114 41 255
0.981554 1.700100 -0.000000 0.000000 0.000000 -1.000000 239 114 41 255
3.400201 1.963106 -0.000000 0.000000 0.000000 -1.000000 239 114 41 255
1.963107 0.000000 0.000000 0.000000 0.000000 -1.000000 239 114 41 255
3.926213 -0.000001 0.000000 0.000000 0.000000 -1.000000 239 114 41 255
3.400200 -1.963107 0.000000 0.000000 0.000000 -1.000000 239 114 41 255
3 0 1 2
3 2 1 3
3 1 4 3
3 3 4 5
3 6 7 5
3 5 7 3
3 7 8 3
3 3 8 2
3 6 9 7
3 7 9 10
3 9 11 10
3 10 11 12
3 13 14 12
3 12 14 10
3 14 8 10
3 10 8 7
3 13 15 14
3 14 15 16
3 15 17 16
3 16 17 18
3 0 2 18
3 18 2 16
3 2 8 16
3 16 8 14
