# This file uses centimeters as units for non-parametric coordinates.

v -0.500000 -0.500000 -1.278877
v -0.500000 -0.500000 1.278877
v -0.376723 0.735348 -1.183617
v -0.376723 0.355152 0.963567
v 0.376723 0.735348 -1.183617
v 0.376723 0.355152 0.963567
v 0.500000 -0.500000 -1.278877
v 0.500000 -0.500000 1.278877
v -0.688696 0.023901 -1.761516
v -0.688696 0.023901 1.761516
v 0.688696 0.023901 1.761516
v 0.688696 0.023901 -1.761516
vt 0.375000 0.000000
vt 0.625000 0.000000
vt 0.375000 0.250000
vt 0.625000 0.250000
vt 0.375000 0.500000
vt 0.625000 0.500000
vt 0.375000 0.750000
vt 0.625000 0.750000
vt 0.375000 1.000000
vt 0.625000 1.000000
vt 0.875000 0.000000
vt 0.875000 0.250000
vt 0.125000 0.000000
vt 0.125000 0.250000
vt 0.375000 0.130975
vt 0.625000 0.130975
vt 0.625000 0.619025
vt 0.875000 0.130975
vt 0.125000 0.130975
vt 0.375000 0.619025
vn -1.000000 0.000053 0.000000
vn -0.761335 0.648305 0.008353
vn -0.995288 0.091223 0.032868
vn -0.931866 0.357245 0.063256
vn 0.000000 0.984683 0.174355
vn 0.000000 0.984683 0.174355
vn 0.000000 0.984683 0.174355
vn 0.000000 0.984683 0.174355
vn 0.931866 0.357245 0.063256
vn 0.761335 0.648305 0.008353
vn 0.998673 0.042308 0.029382
vn 0.997778 0.066627 -0.000000
vn 0.000000 -1.000000 0.000000
vn 0.000000 -1.000000 0.000000
vn 0.000000 -1.000000 0.000000
vn 0.000000 -1.000000 0.000000
vn 0.000000 0.413405 0.910547
vn 0.000000 0.144338 0.989528
vn 0.000000 0.923581 0.383404
vn 0.000000 0.923581 0.383405
vn -0.000000 0.127067 -0.991894
vn -0.000000 -0.038772 -0.999248
vn -0.000000 0.630493 -0.776195
vn -0.000000 0.630493 -0.776195
vn -0.940835 -0.338865 0.000000
vn -0.940835 -0.338865 0.000000
vn 0.000000 -0.677550 0.735477
vn 0.000000 -0.677550 0.735477
vn 0.940835 -0.338865 -0.000000
vn 0.940835 -0.338865 -0.000000
vn -0.000000 -0.677550 -0.735477
vn -0.000000 -0.677550 -0.735477
f 10/16/1 4/4/2 9/15/3
f 9/15/3 4/4/2 3/3/4
f 3/3/5 4/4/6 5/5/7
f 5/5/7 4/4/6 6/6/8
f 5/5/9 6/6/10 12/20/11
f 12/20/11 6/6/10 11/17/12
f 7/7/13 8/8/14 1/9/15
f 1/9/15 8/8/14 2/10/16
f 10/16/17 11/18/18 4/4/19
f 4/4/19 11/18/18 6/12/20
f 12/19/21 9/15/22 5/14/23
f 5/14/23 9/15/22 3/3/24
f 1/1/25 2/2/26 9/15/3
f 9/15/3 2/2/26 10/16/1
f 2/2/27 8/11/28 10/16/17
f 10/16/17 8/11/28 11/18/18
f 12/20/11 11/17/12 7/7/29
f 7/7/29 11/17/12 8/8/30
f 7/13/31 1/1/32 12/19/21
f 12/19/21 1/1/32 9/15/22
